  0
SECTION
  2
HEADER
  9
$ACADVER
  1
AC1015
  9
$ACADMAINTVER
 70
     6
  9
$DWGCODEPAGE
  3
ANSI_1252
  9
$INSBASE
 10
0.0
 20
0.0
 30
0.0
  9
$EXTMIN
 10
0.0
 20
0.0
 30
0.0
  9
$EXTMAX
 10
126.0
 20
60.0
 30
0.0
  9
$LIMMIN
 10
0.0
 20
0.0
  9
$LIMMAX
 10
420.0
 20
297.0
  9
$ORTHOMODE
 70
     0
  9
$REGENMODE
 70
     1
  9
$FILLMODE
 70
     1
  9
$QTEXTMODE
 70
     0
  9
$MIRRTEXT
 70
     1
  9
$LTSCALE
 40
1.0
  9
$ATTMODE
 70
     1
  9
$TEXTSIZE
 40
3.5
  9
$TRACEWID
 40
1.0
  9
$TEXTSTYLE
  7
Standard
  9
$CLAYER
  8
0
  9
$CELTYPE
  6
ByLayer
  9
$CECOLOR
 62
   256
  9
$CELTSCALE
 40
1.0
  9
$DISPSILH
 70
     0
  9
$DIMSCALE
 40
1.0
  9
$DIMASZ
 40
3.556
  9
$DIMEXO
 40
0.0
  9
$DIMDLI
 40
3.75
  9
$DIMRND
 40
0.0
  9
$DIMDLE
 40
0.0
  9
$DIMEXE
 40
1.0
  9
$DIMTP
 40
0.0
  9
$DIMTM
 40
0.0
  9
$DIMTXT
 40
3.5
  9
$DIMCEN
 40
2.5
  9
$DIMTSZ
 40
0.0
  9
$DIMTOL
 70
     0
  9
$DIMLIM
 70
     0
  9
$DIMTIH
 70
     1
  9
$DIMTOH
 70
     1
  9
$DIMSE1
 70
     0
  9
$DIMSE2
 70
     0
  9
$DIMTAD
 70
     1
  9
$DIMZIN
 70
     1
  9
$DIMBLK
  1

  9
$DIMASO
 70
     1
  9
$DIMSHO
 70
     1
  9
$DIMPOST
  1

  9
$DIMAPOST
  1

  9
$DIMALT
 70
     0
  9
$DIMALTD
 70
     3
  9
$DIMALTF
 40
0.0393700787
  9
$DIMLFAC
 40
1.0
  9
$DIMTOFL
 70
     1
  9
$DIMTVP
 40
0.0
  9
$DIMTIX
 70
     0
  9
$DIMSOXD
 70
     0
  9
$DIMSAH
 70
     0
  9
$DIMBLK1
  1

  9
$DIMBLK2
  1

  9
$DIMSTYLE
  2
ISO-25
  9
$DIMCLRD
 70
     0
  9
$DIMCLRE
 70
     0
  9
$DIMCLRT
 70
     0
  9
$DIMTFAC
 40
1.0
  9
$DIMGAP
 40
1.524
  9
$DIMJUST
 70
     0
  9
$DIMSD1
 70
     0
  9
$DIMSD2
 70
     0
  9
$DIMTOLJ
 70
     0
  9
$DIMTZIN
 70
     1
  9
$DIMALTZ
 70
     0
  9
$DIMALTTZ
 70
     0
  9
$DIMUPT
 70
     0
  9
$DIMDEC
 70
     2
  9
$DIMTDEC
 70
     2
  9
$DIMALTU
 70
     2
  9
$DIMALTTD
 70
     3
  9
$DIMTXSTY
  7
Standard
  9
$DIMAUNIT
 70
     0
  9
$DIMADEC
 70
     2
  9
$DIMALTRND
 40
0.0
  9
$DIMAZIN
 70
     0
  9
$DIMDSEP
 70
    44
  9
$DIMATFIT
 70
     3
  9
$DIMFRAC
 70
     0
  9
$DIMLDRBLK
  1

  9
$DIMLUNIT
 70
     2
  9
$DIMLWD
 70
    -2
  9
$DIMLWE
 70
    -2
  9
$DIMTMOVE
 70
     0
  9
$LUNITS
 70
     2
  9
$LUPREC
 70
     2
  9
$SKETCHINC
 40
1.0
  9
$FILLETRAD
 40
0.0
  9
$AUNITS
 70
     0
  9
$AUPREC
 70
     2
  9
$MENU
  1
.
  9
$ELEVATION
 40
0.0
  9
$PELEVATION
 40
0.0
  9
$THICKNESS
 40
0.0
  9
$LIMCHECK
 70
     0
  9
$CHAMFERA
 40
0.0
  9
$CHAMFERB
 40
0.0
  9
$CHAMFERC
 40
0.0
  9
$CHAMFERD
 40
0.0
  9
$SKPOLY
 70
     0
  9
$TDCREATE
 40
2460753.442921331
  9
$TDUCREATE
 40
2460753.442921331
  9
$TDUPDATE
 40
2460753.442994433
  9
$TDUUPDATE
 40
2460753.442994433
  9
$TDINDWG
 40
0.0000000116
  9
$TDUSRTIMER
 40
0.0000000116
  9
$USRTIMER
 70
     1
  9
$ANGBASE
 50
0.0
  9
$ANGDIR
 70
     0
  9
$PDMODE
 70
     0
  9
$PDSIZE
 40
-1.0
  9
$PLINEWID
 40
0.0
  9
$SPLFRAME
 70
     0
  9
$SPLINETYPE
 70
     6
  9
$SPLINESEGS
 70
     8
  9
$HANDSEED
  5
95
  9
$SURFTAB1
 70
     6
  9
$SURFTAB2
 70
     6
  9
$SURFTYPE
 70
     6
  9
$SURFU
 70
     6
  9
$SURFV
 70
     6
  9
$UCSBASE
  2

  9
$UCSNAME
  2

  9
$UCSORG
 10
0.0
 20
0.0
 30
0.0
  9
$UCSXDIR
 10
1.0
 20
0.0
 30
0.0
  9
$UCSYDIR
 10
0.0
 20
1.0
 30
0.0
  9
$UCSORTHOREF
  2

  9
$UCSORTHOVIEW
 70
     0
  9
$UCSORGTOP
 10
0.0
 20
0.0
 30
0.0
  9
$UCSORGBOTTOM
 10
0.0
 20
0.0
 30
0.0
  9
$UCSORGLEFT
 10
0.0
 20
0.0
 30
0.0
  9
$UCSORGRIGHT
 10
0.0
 20
0.0
 30
0.0
  9
$UCSORGFRONT
 10
0.0
 20
0.0
 30
0.0
  9
$UCSORGBACK
 10
0.0
 20
0.0
 30
0.0
  9
$PUCSBASE
  2

  9
$PUCSNAME
  2

  9
$PUCSORG
 10
0.0
 20
0.0
 30
0.0
  9
$PUCSXDIR
 10
1.0
 20
0.0
 30
0.0
  9
$PUCSYDIR
 10
0.0
 20
1.0
 30
0.0
  9
$PUCSORTHOREF
  2

  9
$PUCSORTHOVIEW
 70
     0
  9
$PUCSORGTOP
 10
0.0
 20
0.0
 30
0.0
  9
$PUCSORGBOTTOM
 10
0.0
 20
0.0
 30
0.0
  9
$PUCSORGLEFT
 10
0.0
 20
0.0
 30
0.0
  9
$PUCSORGRIGHT
 10
0.0
 20
0.0
 30
0.0
  9
$PUCSORGFRONT
 10
0.0
 20
0.0
 30
0.0
  9
$PUCSORGBACK
 10
0.0
 20
0.0
 30
0.0
  9
$USERI1
 70
     0
  9
$USERI2
 70
     0
  9
$USERI3
 70
     0
  9
$USERI4
 70
     0
  9
$USERI5
 70
     0
  9
$USERR1
 40
0.0
  9
$USERR2
 40
0.0
  9
$USERR3
 40
0.0
  9
$USERR4
 40
0.0
  9
$USERR5
 40
0.0
  9
$WORLDVIEW
 70
     1
  9
$SHADEDGE
 70
     3
  9
$SHADEDIF
 70
    70
  9
$TILEMODE
 70
     1
  9
$MAXACTVP
 70
    64
  9
$PINSBASE
 10
0.0
 20
0.0
 30
0.0
  9
$PLIMCHECK
 70
     0
  9
$PEXTMIN
 10
1.0000000000E+20
 20
1.0000000000E+20
 30
1.0000000000E+20
  9
$PEXTMAX
 10
-1.0000000000E+20
 20
-1.0000000000E+20
 30
-1.0000000000E+20
  9
$PLIMMIN
 10
0.0
 20
0.0
  9
$PLIMMAX
 10
420.0
 20
297.0
  9
$UNITMODE
 70
     0
  9
$VISRETAIN
 70
     1
  9
$PLINEGEN
 70
     0
  9
$PSLTSCALE
 70
     1
  9
$TREEDEPTH
 70
  3020
  9
$CMLSTYLE
  2
Standard
  9
$CMLJUST
 70
     0
  9
$CMLSCALE
 40
20.0
  9
$PROXYGRAPHICS
 70
     1
  9
$MEASUREMENT
 70
     1
  9
$CELWEIGHT
370
    -1
  9
$ENDCAPS
280
     0
  9
$JOINSTYLE
280
     0
  9
$LWDISPLAY
290
     1
  9
$INSUNITS
 70
     4
  9
$HYPERLINKBASE
  1

  9
$STYLESHEET
  1

  9
$XEDIT
290
     1
  9
$CEPSNTYPE
380
     0
  9
$PSTYLEMODE
290
     1
  9
$FINGERPRINTGUID
  2
{903528b4-8f72-4428-8995-a10f46af6828}
  9
$VERSIONGUID
  2
{FAEB1C32-E019-11D5-929B-00C0DF256EC4}
  9
$EXTNAMES
290
     1
  9
$PSVPSCALE
 40
0.0
  9
$OLESTARTUP
290
     0
  0
ENDSEC
  0
SECTION
  2
CLASSES
  0
CLASS
  1
ACDBDICTIONARYWDFLT
  2
AcDbDictionaryWithDefault
  3
ObjectDBX Classes
 90
        0
280
     0
281
     0
  0
CLASS
  1
VISUALSTYLE
  2
AcDbVisualStyle
  3
ObjectDBX Classes
 90
     4095
280
     0
281
     0
  0
CLASS
  1
MATERIAL
  2
AcDbMaterial
  3
ObjectDBX Classes
 90
     1153
280
     0
281
     0
  0
CLASS
  1
SCALE
  2
AcDbScale
  3
ObjectDBX Classes
 90
     1153
280
     0
281
     0
  0
CLASS
  1
TABLESTYLE
  2
AcDbTableStyle
  3
ObjectDBX Classes
 90
     4095
280
     0
281
     0
  0
CLASS
  1
MLEADERSTYLE
  2
AcDbMLeaderStyle
  3
ACDB_MLEADERSTYLE_CLASS
 90
     4095
280
     0
281
     0
  0
CLASS
  1
SUN
  2
AcDbSun
  3
SCENEOE
 90
     1153
280
     0
281
     0
  0
CLASS
  1
ACDBPLACEHOLDER
  2
AcDbPlaceHolder
  3
ObjectDBX Classes
 90
        0
280
     0
281
     0
  0
CLASS
  1
LAYOUT
  2
AcDbLayout
  3
ObjectDBX Classes
 90
        0
280
     0
281
     0
  0
ENDSEC
  0
SECTION
  2
TABLES
  0
TABLE
  2
VPORT
  5
8
330
0
100
AcDbSymbolTable
 70
     1
  0
VPORT
  5
29
330
8
100
AcDbSymbolTableRecord
100
AcDbViewportTableRecord
  2
*Active
 70
     0
 10
0.0
 20
0.0
 11
1.0
 21
1.0
 12
63.0
 22
30.0
 13
0.0
 23
0.0
 14
10.0
 24
10.0
 15
10.0
 25
10.0
 16
0.0
 26
0.0
 36
1.0
 17
0.0
 27
0.0
 37
0.0
 40
61.2
 41
2.1
 42
50.0
 43
0.0
 44
0.0
 50
0.0
 51
0.0
 71
     0
 72
   100
 73
     1
 74
     3
 75
     0
 76
     0
 77
     0
 78
     0
281
     0
 65
     1
110
0.0
120
0.0
130
0.0
111
1.0
121
0.0
131
0.0
112
0.0
122
1.0
132
0.0
 79
     0
146
0.0
  0
ENDTAB
  0
TABLE
  2
LTYPE
  5
5
330
0
100
AcDbSymbolTable
 70
     6
  0
LTYPE
  5
14
330
5
100
AcDbSymbolTableRecord
100
AcDbLinetypeTableRecord
  2
ByBlock
 70
     0
  3

 72
    65
 73
     0
 40
0.0
  0
LTYPE
  5
15
330
5
100
AcDbSymbolTableRecord
100
AcDbLinetypeTableRecord
  2
ByLayer
 70
     0
  3

 72
    65
 73
     0
 40
0.0
  0
LTYPE
  5
16
330
5
100
AcDbSymbolTableRecord
100
AcDbLinetypeTableRecord
  2
Continuous
 70
     0
  3
Solid line
 72
    65
 73
     0
 40
0.0
  0
LTYPE
  5
5E
330
5
100
AcDbSymbolTableRecord
100
AcDbLinetypeTableRecord
  2
HIDDEN
 70
     0
  3
Hidden __ __ __ __ __ __ __ __ __ __ __ __ __ __
 72
    65
 73
     2
 40
1.905
 49
1.27
 74
     0
 49
-0.635
 74
     0
  0
LTYPE
  5
5F
330
5
100
AcDbSymbolTableRecord
100
AcDbLinetypeTableRecord
  2
PHANTOM
 70
     0
  3
Phantom ______  __  __  ______  __  __  ______
 72
    65
 73
     6
 40
12.7
 49
6.35
 74
     0
 49
-1.27
 74
     0
 49
1.27
 74
     0
 49
-1.27
 74
     0
 49
1.27
 74
     0
 49
-1.27
 74
     0
  0
LTYPE
  5
60
330
5
100
AcDbSymbolTableRecord
100
AcDbLinetypeTableRecord
  2
CENTER
 70
     0
  3
Center ____ _ ____ _ ____ _ ____ _ ____ _ ____
 72
    65
 73
     4
 40
10.16
 49
6.35
 74
     0
 49
-1.27
 74
     0
 49
1.27
 74
     0
 49
-1.27
 74
     0
  0
LTYPE
  5
61
330
5
100
AcDbSymbolTableRecord
100
AcDbLinetypeTableRecord
  2
CENTERX2
 70
     0
  3
Center (2x) ________  __  ________  __  _____
 72
    65
 73
     4
 40
20.32
 49
12.7
 74
     0
 49
-2.54
 74
     0
 49
2.54
 74
     0
 49
-2.54
 74
     0
  0
LTYPE
  5
62
330
5
100
AcDbSymbolTableRecord
100
AcDbLinetypeTableRecord
  2
DOT2
 70
     0
  3
Dot (.5x) ........................................
 72
    65
 73
     2
 40
0.635
 49
0.0
 74
     0
 49
-0.635
 74
     0
  0
ENDTAB
  0
TABLE
  2
LAYER
  5
2
330
0
100
AcDbSymbolTable
 70
     1
  0
LAYER
  5
10
330
2
100
AcDbSymbolTableRecord
100
AcDbLayerTableRecord
  2
0
 70
     0
 62
     7
  6
Continuous
370
    -3
390
F
  0
ENDTAB
  0
TABLE
  2
STYLE
  5
3
330
0
100
AcDbSymbolTable
 70
     1
  0
STYLE
  5
11
330
3
100
AcDbSymbolTableRecord
100
AcDbTextStyleTableRecord
  2
Standard
 70
     0
 40
0.0
 41
1.0
 50
0.0
 71
     0
 42
3.5
  3
txt
  4

  0
ENDTAB
  0
TABLE
  2
VIEW
  5
6
330
0
100
AcDbSymbolTable
 70
     0
  0
ENDTAB
  0
TABLE
  2
UCS
  5
7
330
0
100
AcDbSymbolTable
 70
     0
  0
ENDTAB
  0
TABLE
  2
APPID
  5
9
330
0
100
AcDbSymbolTable
 70
     1
  0
APPID
  5
12
330
9
100
AcDbSymbolTableRecord
100
AcDbRegAppTableRecord
  2
ACAD
 70
     0
  0
ENDTAB
  0
TABLE
  2
DIMSTYLE
  5
A
330
0
100
AcDbSymbolTable
 70
     1
100
AcDbDimStyleTable
  0
DIMSTYLE
105
27
330
A
100
AcDbSymbolTableRecord
100
AcDbDimStyleTableRecord
  2
ISO-25
 70
     0
 41
2.5
 42
0.625
 43
3.75
 44
1.25
 73
     0
 74
     0
 77
     1
 78
     8
140
2.5
141
2.5
143
0.0393700787
147
0.625
171
     3
172
     1
178
     0
271
     2
272
     2
274
     3
278
    44
283
     0
284
     8
340
11
  0
ENDTAB
  0
TABLE
  2
BLOCK_RECORD
  5
1
330
0
100
AcDbSymbolTable
 70
     1
  0
BLOCK_RECORD
  5
1F
330
1
100
AcDbSymbolTableRecord
100
AcDbBlockTableRecord
  2
*Model_Space
340
22
  0
BLOCK_RECORD
  5
1B
330
1
100
AcDbSymbolTableRecord
100
AcDbBlockTableRecord
  2
*Paper_Space
340
1E
  0
BLOCK_RECORD
  5
23
330
1
100
AcDbSymbolTableRecord
100
AcDbBlockTableRecord
  2
*Paper_Space0
340
26
  0
ENDTAB
  0
ENDSEC
  0
SECTION
  2
BLOCKS
  0
BLOCK
  5
20
330
1F
100
AcDbEntity
  8
0
100
AcDbBlockBegin
  2
*Model_Space
 70
     0
 10
0.0
 20
0.0
 30
0.0
  3
*Model_Space
  1

  0
ENDBLK
  5
21
330
1F
100
AcDbEntity
  8
0
100
AcDbBlockEnd
  0
BLOCK
  5
1C
330
1B
100
AcDbEntity
 67
     1
  8
0
100
AcDbBlockBegin
  2
*Paper_Space
 70
     0
 10
0.0
 20
0.0
 30
0.0
  3
*Paper_Space
  1

  0
ENDBLK
  5
1D
330
1B
100
AcDbEntity
 67
     1
  8
0
100
AcDbBlockEnd
  0
BLOCK
  5
24
330
23
100
AcDbEntity
  8
0
100
AcDbBlockBegin
  2
*Paper_Space0
 70
     0
 10
0.0
 20
0.0
 30
0.0
  3
*Paper_Space0
  1

  0
ENDBLK
  5
25
330
23
100
AcDbEntity
  8
0
100
AcDbBlockEnd
  0
ENDSEC
  0
SECTION
  2
ENTITIES
  0
SPLINE
  5
63
330
1F
100
AcDbEntity
  8
0
  6
Continuous
 62
     7
370
    25
100
AcDbSpline
210
0.0
220
0.0
230
1.0
 70
     8
 71
     3
 72
    23
 73
    19
 74
     0
 42
0.00000001
 43
0.00000001
 40
0.0
 40
0.0
 40
0.0
 40
0.0
 40
0.0546814249240087
 40
0.1074985130187081
 40
0.1599077410475153
 40
0.2118983372282128
 40
0.2642022804337424
 40
0.3179174878549358
 40
0.3742831203231174
 40
0.4330193616040482
 40
0.4937819806248823
 40
0.5564364571638529
 40
0.6218698125276844
 40
0.6897428769358294
 40
0.7614550266432278
 40
0.8370144313852911
 40
0.9162593193586533
 40
1.0
 40
1.0
 40
1.0
 40
1.0
 10
44.04082827467582
 20
50.94199493203369
 30
0.0
 10
43.74981956013675
 20
50.93186351532412
 30
0.0
 10
43.17772393293045
 20
50.91194610767495
 30
0.0
 10
42.3360938475999
 20
50.76914416722963
 30
0.0
 10
41.53327671887484
 20
50.52739984690268
 30
0.0
 10
40.76692774155919
 20
50.19442061825331
 30
0.0
 10
40.03774550043319
 20
49.77142559855116
 30
0.0
 10
39.35251130763732
 20
49.24169561747691
 30
0.0
 10
38.70238154840683
 20
48.61967567477049
 30
0.0
 10
38.09397115727784
 20
47.90712557500243
 30
0.0
 10
37.52916720241206
 20
47.11737873335328
 30
0.0
 10
37.0408796336497
 20
46.23731158343264
 30
0.0
 10
36.60833804012001
 20
45.28713483015852
 30
0.0
 10
36.2531243174245
 20
44.25468798032298
 30
0.0
 10
35.93653638227288
 20
43.15365143331586
 30
0.0
 10
35.70504453223172
 20
41.96988888164433
 30
0.0
 10
35.51753235152561
 20
40.71368659648321
 30
0.0
 10
35.45775787236182
 20
39.84820890453632
 30
0.0
 10
35.42704622339375
 20
39.40353339357214
 30
0.0
  0
LINE
  5
64
330
1F
100
AcDbEntity
  8
0
  6
Continuous
 62
     7
370
    25
100
AcDbLine
 10
35.4270462234
 20
39.4035333936
 30
0.0
 11
31.5808923772
 21
39.4035333936
 31
0.0
  0
SPLINE
  5
65
330
1F
100
AcDbEntity
  8
0
  6
Continuous
 62
     7
370
    25
100
AcDbSpline
210
0.0
220
0.0
230
1.0
 70
     8
 71
     3
 72
    23
 73
    19
 74
     0
 42
0.00000001
 43
0.00000001
 40
0.0
 40
0.0
 40
0.0
 40
0.0
 40
0.0769336855214944
 40
0.1508220269787735
 40
0.2215958892273023
 40
0.2903871576784615
 40
0.3568810607840942
 40
0.4223640847695285
 40
0.4865596780741479
 40
0.5501428153171641
 40
0.6123213801057481
 40
0.6712378719950295
 40
0.7275343853962609
 40
0.7821696893987703
 40
0.8360788592452387
 40
0.889872115721933
 40
0.944233899588313
 40
0.9999999999999999
 40
0.9999999999999999
 40
0.9999999999999999
 40
0.9999999999999999
 10
31.58089237723991
 20
39.40353339357214
 30
0.0
 10
31.60274961656658
 20
39.99835300444438
 30
0.0
 10
31.64559889795826
 20
41.16444687854341
 30
0.0
 10
31.84730856942085
 20
42.86866505482946
 30
0.0
 10
32.16158966331243
 20
44.49042648071612
 30
0.0
 10
32.56457006562981
 20
46.03419374339061
 30
0.0
 10
33.09178484805047
 20
47.4967286779565
 30
0.0
 10
33.7176312432967
 20
48.88122129492356
 30
0.0
 10
34.46637005582305
 20
50.17729323895774
 30
0.0
 10
35.30123825016952
 20
51.38853886222633
 30
0.0
 10
36.22478352370901
 20
52.48112782534736
 30
0.0
 10
37.2078992991901
 20
53.44190892079761
 30
0.0
 10
38.24802149854334
 20
54.24844218222577
 30
0.0
 10
39.33481215260179
 20
54.92120796771276
 30
0.0
 10
40.48614114402112
 20
55.43118273860767
 30
0.0
 10
41.68473150647331
 20
55.8057361827583
 30
0.0
 10
42.93709595594361
 20
56.03333210793129
 30
0.0
 10
43.78948666899286
 20
56.05780671195556
 30
0.0
 10
44.22111673621427
 20
56.0702000602388
 30
0.0
  0
SPLINE
  5
66
330
1F
100
AcDbEntity
  8
0
  6
Continuous
 62
     7
370
    25
100
AcDbSpline
210
0.0
220
0.0
230
1.0
 70
     8
 71
     3
 72
    23
 73
    19
 74
     0
 42
0.00000001
 43
0.00000001
 40
0.0
 40
0.0
 40
0.0
 40
0.0
 40
0.0606744397420079
 40
0.1188012933603576
 40
0.1756972325445268
 40
0.2320690474483901
 40
0.2892164268927189
 40
0.3471695885385251
 40
0.4077479541987483
 40
0.4710232122631487
 40
0.5358721131895143
 40
0.5998655511816429
 40
0.6640704343232472
 40
0.7288934209114956
 40
0.7944449716053525
 40
0.8609111643294599
 40
0.9294368431173061
 40
1.0
 40
1.0
 40
1.0
 40
1.0
 10
44.22111673621427
 20
56.0702000602388
 30
0.0
 10
44.64935430003967
 20
56.05737661886555
 30
0.0
 10
45.48784867533627
 20
56.03226816418594
 30
0.0
 10
46.71282222598179
 20
55.81572904715895
 30
0.0
 10
47.87105496701915
 20
55.46176920612083
 30
0.0
 10
48.97707238226549
 20
54.98165320595184
 30
0.0
 10
50.00822531112647
 20
54.34286751166682
 30
0.0
 10
50.98398389031034
 20
53.57412813154698
 30
0.0
 10
51.88138256985166
 20
52.65395604936713
 30
0.0
 10
52.71892841359305
 20
51.61691489144277
 30
0.0
 10
53.46546011057363
 20
50.48429067938029
 30
0.0
 10
54.13935522621324
 20
49.29883692731512
 30
0.0
 10
54.68223679113497
 20
48.04837601299831
 30
0.0
 10
55.15235460747616
 20
46.75726696134886
 30
0.0
 10
55.49341831272832
 20
45.40959273512836
 30
0.0
 10
55.76262424623899
 20
44.01989492762194
 30
0.0
 10
55.91096760802005
 20
42.5751853685482
 30
0.0
 10
55.93014007589633
 20
41.59401392041037
 30
0.0
 10
55.93986673621427
 20
41.09624172690548
 30
0.0
  0
SPLINE
  5
67
330
1F
100
AcDbEntity
  8
0
  6
Continuous
 62
     7
370
    25
100
AcDbSpline
210
0.0
220
0.0
230
1.0
 70
     8
 71
     3
 72
    19
 73
    15
 74
     0
 42
0.00000001
 43
0.00000001
 40
0.0
 40
0.0
 40
0.0
 40
0.0
 40
0.1051079423349881
 40
0.2080472271437105
 40
0.3095348864938878
 40
0.4102650948224311
 40
0.4635646172584171
 40
0.5224235181663592
 40
0.58737242814753
 40
0.6580285420154538
 40
0.7347065207414912
 40
0.8169237507338409
 40
0.90567213431644
 40
1.0
 40
1.0
 40
1.0
 40
1.0
 10
55.93986673621427
 20
41.09624172690548
 30
0.0
 10
55.91885310557605
 20
40.39767775770967
 30
0.0
 10
55.87725941161358
 20
39.01496305941886
 30
0.0
 10
55.59900389928907
 20
36.97140028134577
 30
0.0
 10
55.09837758377471
 20
35.00279156603388
 30
0.0
 10
54.5353985661856
 20
33.39752343103338
 30
0.0
 10
53.95809177856797
 20
32.10507072847987
 30
0.0
 10
53.43266021410191
 20
31.05147409460907
 30
0.0
 10
52.82202102688019
 20
29.91220066882805
 30
0.0
 10
52.12101025051941
 20
28.68742736971605
 30
0.0
 10
51.31474727182773
 20
27.39201488937791
 30
0.0
 10
50.43350648944644
 20
26.00181534600814
 30
0.0
 10
49.45146128956431
 20
24.53719855559593
 30
0.0
 10
48.7626944154963
 20
23.53413304848182
 30
0.0
 10
48.40781545416299
 20
23.01731544485419
 30
0.0
  0
LINE
  5
68
330
1F
100
AcDbEntity
  8
0
  6
Continuous
 62
     7
370
    25
100
AcDbLine
 10
48.4078154542
 20
23.0173154449
 30
0.0
 11
39.1329757106
 21
9.9163539064
 31
0.0
  0
LINE
  5
69
330
1F
100
AcDbEntity
  8
0
  6
Continuous
 62
     7
370
    25
100
AcDbLine
 10
39.1329757106
 20
9.9163539064
 30
0.0
 11
56.5808923772
 21
9.9163539064
 31
0.0
  0
LINE
  5
6A
330
1F
100
AcDbEntity
  8
0
  6
Continuous
 62
     7
370
    25
100
AcDbLine
 10
56.5808923772
 20
9.9163539064
 30
0.0
 11
56.5808923772
 21
4.7881487782
 31
0.0
  0
LINE
  5
6B
330
1F
100
AcDbEntity
  8
0
  6
Continuous
 62
     7
370
    25
100
AcDbLine
 10
56.5808923772
 20
4.7881487782
 30
0.0
 11
30.2988410952
 21
4.7881487782
 31
0.0
  0
LINE
  5
6C
330
1F
100
AcDbEntity
  8
0
  6
Continuous
 62
     7
370
    25
100
AcDbLine
 10
30.2988410952
 20
4.7881487782
 30
0.0
 11
44.952286608
 21
25.4812577525
 31
0.0
  0
SPLINE
  5
6D
330
1F
100
AcDbEntity
  8
0
  6
Continuous
 62
     7
370
    25
100
AcDbSpline
210
0.0
220
0.0
230
1.0
 70
     8
 71
     3
 72
    19
 73
    15
 74
     0
 42
0.00000001
 43
0.00000001
 40
0.0
 40
0.0
 40
0.0
 40
0.0
 40
0.1058696461937759
 40
0.2039674402899772
 40
0.293974208239652
 40
0.375916532987955
 40
0.4506307026038282
 40
0.5168571884125384
 40
0.5756638963767479
 40
0.6266459288881425
 40
0.7203855386293855
 40
0.813216943194813
 40
0.9056723258175411
 40
1.0
 40
1.0
 40
1.0
 40
1.0
 10
44.95228660800914
 20
25.4812577525465
 30
0.0
 10
45.30695415805495
 20
25.97483123000146
 30
0.0
 10
45.99025324270811
 20
26.92574513602553
 30
0.0
 10
46.96275331928179
 20
28.30511265231083
 30
0.0
 10
47.83509263836979
 20
29.58680114938083
 30
0.0
 10
48.60985729343615
 20
30.77225000217943
 30
0.0
 10
49.28708582107823
 20
31.8579480431237
 30
0.0
 10
49.87577124994014
 20
32.84223215845758
 30
0.0
 10
50.35712599147443
 20
33.73118187527324
 30
0.0
 10
50.86482221122824
 20
34.78381384053467
 30
0.0
 10
51.37010639375205
 20
36.05365850388145
 30
0.0
 10
51.78867539662602
 20
37.60256870705268
 30
0.0
 10
52.05148304935973
 20
39.19086755364253
 30
0.0
 10
52.07954252153556
 20
40.26388856098052
 30
0.0
 10
52.09371289006042
 20
40.80577698331572
 30
0.0
  0
SPLINE
  5
6E
330
1F
100
AcDbEntity
  8
0
  6
Continuous
 62
     7
370
    25
100
AcDbSpline
210
0.0
220
0.0
230
1.0
 70
     8
 71
     3
 72
    23
 73
    19
 74
     0
 42
0.00000001
 43
0.00000001
 40
0.0
 40
0.0
 40
0.0
 40
0.0
 40
0.0712327339439599
 40
0.1400489135346252
 40
0.2068361526008728
 40
0.2726909016284064
 40
0.3382751987985634
 40
0.4025697279785312
 40
0.4673170942783522
 40
0.5333490710289782
 40
0.5976852429736961
 40
0.6588792544335337
 40
0.7176375069356259
 40
0.774005946383042
 40
0.8299102973718415
 40
0.8859885888898201
 40
0.941975629010948
 40
1.0
 40
1.0
 40
1.0
 40
1.0
 10
52.09371289006042
 20
40.80577698331572
 30
0.0
 10
52.08554573666681
 20
41.14662157575148
 30
0.0
 10
52.06948849870729
 20
41.81674768508113
 30
0.0
 10
51.95692935266209
 20
42.8013137850719
 30
0.0
 10
51.77603839143809
 20
43.74880219491501
 30
0.0
 10
51.52721346612674
 20
44.66517914946519
 30
0.0
 10
51.19792946230962
 20
45.54344116059673
 30
0.0
 10
50.79114171345005
 20
46.38223009135979
 30
0.0
 10
50.31963282788878
 20
47.18890053812155
 30
0.0
 10
49.7757276640046
 20
47.94936737378735
 30
0.0
 10
49.178601044205
 20
48.64573359288946
 30
0.0
 10
48.54943614584462
 20
49.26630226573034
 30
0.0
 10
47.87341316510319
 20
49.77418118809706
 30
0.0
 10
47.17594436066307
 20
50.2044032302038
 30
0.0
 10
46.44048565131945
 20
50.53997705808673
 30
0.0
 10
45.66704831608447
 20
50.76460047023713
 30
0.0
 10
44.86443071178896
 20
50.91306885789013
 30
0.0
 10
44.31861358640226
 20
50.93223872180298
 30
0.0
 10
44.04082827467581
 20
50.94199493203368
 30
0.0
  0
LINE
  5
6F
330
1F
100
AcDbEntity
  8
0
  6
Continuous
 62
     7
370
    25
100
AcDbLine
 10
98.2475590439
 20
54.7881487782
 30
0.0
 11
114.9142257106
 21
54.7881487782
 31
0.0
  0
LINE
  5
70
330
1F
100
AcDbEntity
  8
0
  6
Continuous
 62
     7
370
    25
100
AcDbLine
 10
114.9142257106
 20
54.7881487782
 30
0.0
 11
114.9142257106
 21
49.65994365
 31
0.0
  0
LINE
  5
71
330
1F
100
AcDbEntity
  8
0
  6
Continuous
 62
     7
370
    25
100
AcDbLine
 10
114.9142257106
 20
49.65994365
 30
0.0
 11
101.3625430183
 21
49.65994365
 31
0.0
  0
LINE
  5
72
330
1F
100
AcDbEntity
  8
0
  6
Continuous
 62
     7
370
    25
100
AcDbLine
 10
101.3625430183
 20
49.65994365
 30
0.0
 11
99.3393058388
 21
36.4688378808
 31
0.0
  0
SPLINE
  5
73
330
1F
100
AcDbEntity
  8
0
  6
Continuous
 62
     7
370
    25
100
AcDbSpline
210
0.0
220
0.0
230
1.0
 70
     8
 71
     3
 72
    11
 73
     7
 74
     0
 42
0.00000001
 43
0.00000001
 40
0.0
 40
0.0
 40
0.0
 40
0.0
 40
0.2783943838736639
 40
0.537083640460841
 40
0.775359871838817
 40
1.0
 40
1.0
 40
1.0
 40
1.0
 10
99.33930583877837
 20
36.46883788075162
 30
0.0
 10
99.7511142347929
 20
36.62243572068348
 30
0.0
 10
100.5455826771024
 20
36.91875953975508
 30
0.0
 10
101.7277738605161
 20
37.23861012728182
 30
0.0
 10
102.8509762235639
 20
37.44531976134168
 30
0.0
 10
103.5819438382442
 20
37.46897651940958
 30
0.0
 10
103.9366616080092
 20
37.48045647049522
 30
0.0
  0
SPLINE
  5
74
330
1F
100
AcDbEntity
  8
0
  6
Continuous
 62
     7
370
    25
100
AcDbSpline
210
0.0
220
0.0
230
1.0
 70
     8
 71
     3
 72
    23
 73
    19
 74
     0
 42
0.00000001
 43
0.00000001
 40
0.0
 40
0.0
 40
0.0
 40
0.0
 40
0.0572157968244996
 40
0.1125629773645193
 40
0.1672024519118367
 40
0.2215086261001558
 40
0.2759267187890347
 40
0.3322802626888592
 40
0.3910218152644409
 40
0.4525261462313889
 40
0.5157905974905187
 40
0.5791374263584623
 40
0.6440637835852908
 40
0.7100816644575346
 40
0.7784070728061515
 40
0.8492855024370509
 40
0.9230587654979674
 40
1.0
 40
1.0
 40
1.0
 40
1.0
 10
103.9366616080091
 20
37.48045647049521
 30
0.0
 10
104.3717264457487
 20
37.46850707505283
 30
0.0
 10
105.2276472962928
 20
37.44499854063837
 30
0.0
 10
106.4811560638401
 20
37.21308862155578
 30
0.0
 10
107.6790535724299
 20
36.85475940483628
 30
0.0
 10
108.817450338085
 20
36.35169940716469
 30
0.0
 10
109.8934210059008
 20
35.70076793236653
 30
0.0
 10
110.9053637444707
 20
34.90038255289271
 30
0.0
 10
111.8742242263859
 20
33.96838198428138
 30
0.0
 10
112.7546265301956
 20
32.88396144358454
 30
0.0
 10
113.5612598730911
 20
31.70245070202094
 30
0.0
 10
114.2681927785054
 20
30.42810463095181
 30
0.0
 10
114.8659747134314
 20
29.07681553797043
 30
0.0
 10
115.3645431103263
 20
27.64511926181117
 30
0.0
 10
115.7270004460206
 20
26.12661316629745
 30
0.0
 10
115.9951960787102
 20
24.53047382257628
 30
0.0
 10
116.1745387179058
 20
22.85444094153656
 30
0.0
 10
116.1889300671699
 20
21.70903010508776
 30
0.0
 10
116.1962769926245
 20
21.12428659870034
 30
0.0
  0
SPLINE
  5
75
330
1F
100
AcDbEntity
  8
0
  6
Continuous
 62
     7
370
    25
100
AcDbSpline
210
0.0
220
0.0
230
1.0
 70
     8
 71
     3
 72
    23
 73
    19
 74
     0
 42
0.00000001
 43
0.00000001
 40
0.0
 40
0.0
 40
0.0
 40
0.0
 40
0.0975066911945052
 40
0.1918852263885618
 40
0.2836500997272196
 40
0.3745733889416044
 40
0.461876074059634
 40
0.5440392851341539
 40
0.6221915448637918
 40
0.6984648419773106
 40
0.7358631311427888
 40
0.7729656738749424
 40
0.8097084152375952
 40
0.8468829361632794
 40
0.8839854788954329
 40
0.9216427919749599
 40
0.960536069649189
 40
1.0
 40
1.0
 40
1.0
 40
1.0
 10
116.1962769926245
 20
21.12428659870034
 30
0.0
 10
116.1767243153143
 20
20.31506802219353
 30
0.0
 10
116.1382462389256
 20
18.72259177416768
 30
0.0
 10
115.7864383705161
 20
16.39017425575586
 30
0.0
 10
115.2248518732498
 20
14.1582581768731
 30
0.0
 10
114.4521689313708
 20
12.05169784790466
 30
0.0
 10
113.4914084023735
 20
10.11157012570136
 30
0.0
 10
112.3542871585465
 20
8.395242145597404
 30
0.0
 10
111.0665358815609
 20
6.904122751781545
 30
0.0
 10
109.8366038466931
 20
5.885730921489258
 30
0.0
 10
108.8060103226633
 20
5.174475250321344
 30
0.0
 10
107.989004218627
 20
4.742788821689219
 30
0.0
 10
107.1544306099139
 20
4.351825214213378
 30
0.0
 10
106.2841719706859
 20
4.046751832664904
 30
0.0
 10
105.3875153543034
 20
3.801884097910054
 30
0.0
 10
104.4587340180694
 20
3.636560467690391
 30
0.0
 10
103.502366937815
 20
3.517675044794681
 30
0.0
 10
102.851969193337
 20
3.509975370515899
 30
0.0
 10
102.5244019926245
 20
3.506097496136241
 30
0.0
  0
SPLINE
  5
76
330
1F
100
AcDbEntity
  8
0
  6
Continuous
 62
     7
370
    25
100
AcDbSpline
210
0.0
220
0.0
230
1.0
 70
     8
 71
     3
 72
    23
 73
    19
 74
     0
 42
0.00000001
 43
0.00000001
 40
0.0
 40
0.0
 40
0.0
 40
0.0
 40
0.0577047138227497
 40
0.1136590978826173
 40
0.1683948399496909
 40
0.2233716172554535
 40
0.2787244175395222
 40
0.3358693396284466
 40
0.394485505840492
 40
0.4558477131323093
 40
0.5190945928359348
 40
0.5826361529683006
 40
0.6471909875817278
 40
0.7136129599607849
 40
0.7813729071869869
 40
0.8517463070031949
 40
0.9244862558383586
 40
1.0
 40
1.0
 40
1.0
 40
1.0
 10
102.5244019926245
 20
3.506097496136241
 30
0.0
 10
102.1328507076098
 20
3.516025750671645
 30
0.0
 10
101.3616248773206
 20
3.535581110698371
 30
0.0
 10
100.2349661363963
 20
3.738781225776985
 30
0.0
 10
99.14951487315223
 20
4.033844935439022
 30
0.0
 10
98.11589827059298
 20
4.470268529929082
 30
0.0
 10
97.12291229389494
 20
5.025509495343509
 30
0.0
 10
96.18536245395599
 20
5.712072313862929
 30
0.0
 10
95.28311460065173
 20
6.507323084907046
 30
0.0
 10
94.45062425676217
 20
7.431773301189336
 30
0.0
 10
93.67252991939611
 20
8.444058099691047
 30
0.0
 10
92.98141537971368
 20
9.543516394515068
 30
0.0
 10
92.36576495014522
 20
10.71100222971596
 30
0.0
 10
91.83988542303392
 20
11.95267754806965
 30
0.0
 10
91.38514036123786
 20
13.26361088610291
 30
0.0
 10
91.01571985515655
 20
14.6456662869931
 30
0.0
 10
90.73477926310008
 20
16.10220610573228
 30
0.0
 10
90.61583579118994
 20
17.10028515156635
 30
0.0
 10
90.55525135159888
 20
17.60866159870034
 30
0.0
  0
LINE
  5
77
330
1F
100
AcDbEntity
  8
0
  6
Continuous
 62
     7
370
    25
100
AcDbLine
 10
90.5552513516
 20
17.6086615987
 30
0.0
 11
94.4014051978
 21
17.6086615987
 31
0.0
  0
SPLINE
  5
78
330
1F
100
AcDbEntity
  8
0
  6
Continuous
 62
     7
370
    25
100
AcDbSpline
210
0.0
220
0.0
230
1.0
 70
     8
 71
     3
 72
    19
 73
    15
 74
     0
 42
0.00000001
 43
0.00000001
 40
0.0
 40
0.0
 40
0.0
 40
0.0
 40
0.1079200182192301
 40
0.2062761419023135
 40
0.2972447833369082
 40
0.3810563798684178
 40
0.4605779079352543
 40
0.5384024319533737
 40
0.6171526232941713
 40
0.6964846553714692
 40
0.7753197449757226
 40
0.8509096048992048
 40
0.9258997414875457
 40
1.0
 40
1.0
 40
1.0
 40
1.0
 10
94.40140519775272
 20
17.60866159870034
 30
0.0
 10
94.4833615356591
 20
17.13283530823694
 30
0.0
 10
94.64001122370334
 20
16.22335055247
 30
0.0
 10
94.99506018811964
 20
14.94017175319227
 30
0.0
 10
95.42028074425676
 20
13.79351390948201
 30
0.0
 10
95.93254307759555
 20
12.77456580704643
 30
0.0
 10
96.54573127229389
 20
11.88423765916629
 30
0.0
 10
97.23311393932974
 20
11.08037904706936
 30
0.0
 10
98.01470211624908
 20
10.36690130120941
 30
0.0
 10
98.8867960367982
 20
9.761766086536598
 30
0.0
 10
99.80585911776447
 20
9.256540307418081
 30
0.0
 10
100.7732493622513
 20
8.907778628436757
 30
0.0
 10
101.755225381419
 20
8.672205966566121
 30
0.0
 10
102.4229172695786
 20
8.646886697248863
 30
0.0
 10
102.7547705823681
 20
8.634302624341371
 30
0.0
  0
SPLINE
  5
79
330
1F
100
AcDbEntity
  8
0
  6
Continuous
 62
     7
370
    25
100
AcDbSpline
210
0.0
220
0.0
230
1.0
 70
     8
 71
     3
 72
    23
 73
    19
 74
     0
 42
0.00000001
 43
0.00000001
 40
0.0
 40
0.0
 40
0.0
 40
0.0
 40
0.0552267480293848
 40
0.1089507881827586
 40
0.1619699524319661
 40
0.2158680223250714
 40
0.270930805519603
 40
0.3283505639304755
 40
0.3882341460780031
 40
0.4515360659921989
 40
0.5163403427573304
 40
0.5815420431129256
 40
0.6471486041988799
 40
0.713661946763716
 40
0.7818936070435771
 40
0.8517805721824447
 40
0.9243870024272166
 40
1.0
 40
1.0
 40
1.0
 40
1.0
 10
102.7547705823681
 20
8.63430262434137
 30
0.0
 10
103.0794241238653
 20
8.64613790687243
 30
0.0
 10
103.7198974541731
 20
8.669486436455198
 30
0.0
 10
104.658125412182
 20
8.846472559476787
 30
0.0
 10
105.5625578671007
 20
9.125549243207267
 30
0.0
 10
106.4229747171494
 20
9.536931546473513
 30
0.0
 10
107.2682750819072
 20
10.03305088992183
 30
0.0
 10
108.0522186898773
 20
10.67836187488716
 30
0.0
 10
108.8235353246198
 20
11.40871380935943
 30
0.0
 10
109.5327365204791
 20
12.25837622143342
 30
0.0
 10
110.1910489711199
 20
13.18471556076568
 30
0.0
 10
110.7781854020842
 20
14.17528583047785
 30
0.0
 10
111.2526951911916
 20
15.23489236637424
 30
0.0
 10
111.6596454060221
 20
16.34053825265843
 30
0.0
 10
111.9682771462102
 20
17.50452541222773
 30
0.0
 10
112.1842060204491
 20
18.7242744620683
 30
0.0
 10
112.3339834784185
 20
19.99878289908099
 30
0.0
 10
112.3446709932398
 20
20.87009694674353
 30
0.0
 10
112.3501231464707
 20
21.31459108587983
 30
0.0
  0
SPLINE
  5
7A
330
1F
100
AcDbEntity
  8
0
  6
Continuous
 62
     7
370
    25
100
AcDbSpline
210
0.0
220
0.0
230
1.0
 70
     8
 71
     3
 72
    23
 73
    19
 74
     0
 42
0.00000001
 43
0.00000001
 40
0.0
 40
0.0
 40
0.0
 40
0.0
 40
0.0737988241920304
 40
0.1442559200530459
 40
0.2117666369636503
 40
0.2767800976773558
 40
0.3403747198482826
 40
0.402237833993867
 40
0.4634841274575401
 40
0.5244584061608271
 40
0.5844929538550359
 40
0.6428942963890952
 40
0.7000037396058094
 40
0.7577447544451207
 40
0.8155119349206854
 40
0.8745470267375044
 40
0.9360026887966942
 40
1.0
 40
1.0
 40
1.0
 40
1.0
 10
112.3501231464707
 20
21.31459108587983
 30
0.0
 10
112.3428117385287
 20
21.71554715662247
 30
0.0
 10
112.3285199948444
 20
22.49930336844677
 30
0.0
 10
112.2058477234141
 20
23.64455041503123
 30
0.0
 10
112.0077386125723
 20
24.73019324523734
 30
0.0
 10
111.7264831950902
 20
25.7592991362505
 30
0.0
 10
111.3643607534016
 20
26.72957332022055
 30
0.0
 10
110.9367240576265
 20
27.65092940024695
 30
0.0
 10
110.4115799379349
 20
28.50455534885663
 30
0.0
 10
109.8096688264766
 20
29.29189076790063
 30
0.0
 10
109.1556718047727
 20
30.01670018085548
 30
0.0
 10
108.4307373083938
 20
30.64053838255527
 30
0.0
 10
107.6473447970519
 20
31.16449030653772
 30
0.0
 10
106.8205649598606
 20
31.61204946414811
 30
0.0
 10
105.9275418985025
 20
31.93792537322368
 30
0.0
 10
104.9894439278462
 20
32.1834114881764
 30
0.0
 10
103.9941812678864
 20
32.32183224185378
 30
0.0
 10
103.312733827362
 20
32.34197560877701
 30
0.0
 10
102.9651071208297
 20
32.35225134229008
 30
0.0
  0
SPLINE
  5
7B
330
1F
100
AcDbEntity
  8
0
  6
Continuous
 62
     7
370
    25
100
AcDbSpline
210
0.0
220
0.0
230
1.0
 70
     8
 71
     3
 72
    15
 73
    11
 74
     0
 42
0.00000001
 43
0.00000001
 40
0.0
 40
0.0
 40
0.0
 40
0.0
 40
0.1011825062449383
 40
0.2075492523457504
 40
0.320831421679165
 40
0.4404707268326196
 40
0.5679833442270997
 40
0.7037221044009723
 40
0.8479794910189519
 40
1.0
 40
1.0
 40
1.0
 40
1.0
 10
102.9651071208297
 20
32.35225134229008
 30
0.0
 10
102.6609131696866
 20
32.344184006773
 30
0.0
 10
102.0369394268837
 20
32.32763599351328
 30
0.0
 10
101.0797029285871
 20
32.19888727481487
 30
0.0
 10
100.0791923706528
 20
31.99905242151761
 30
0.0
 10
99.0332380146751
 20
31.7140010027898
 30
0.0
 10
97.94043834013605
 20
31.35167445010637
 30
0.0
 10
96.79844981484706
 20
30.90792503298674
 30
0.0
 10
95.60722248940189
 20
30.3898410036145
 30
0.0
 10
94.81030461952597
 20
29.99218599407953
 30
0.0
 10
94.40140519775272
 20
29.78814877818753
 30
0.0
  0
LINE
  5
7C
330
1F
100
AcDbEntity
  8
0
  6
Continuous
 62
     7
370
    25
100
AcDbLine
 10
94.4014051978
 20
29.7881487782
 30
0.0
 11
98.2475590439
 21
54.7881487782
 31
0.0
  0
LINE
  5
7D
330
1F
100
AcDbEntity
  8
0
  6
Continuous
 62
     7
370
    25
100
AcDbLine
 10
5.0
 20
0.0
 30
0.0
 11
121.0
 21
0.0
 31
0.0
  0
ARC
  5
7E
330
1F
100
AcDbEntity
  8
0
  6
Continuous
 62
     7
370
    25
100
AcDbCircle
 10
121.0
 20
5.0
 30
0.0
 40
5.0
100
AcDbArc
 50
270.0
 51
0.0
  0
LINE
  5
7F
330
1F
100
AcDbEntity
  8
0
  6
Continuous
 62
     7
370
    25
100
AcDbLine
 10
126.0
 20
5.0
 30
0.0
 11
126.0
 21
55.0
 31
0.0
  0
ARC
  5
80
330
1F
100
AcDbEntity
  8
0
  6
Continuous
 62
     7
370
    25
100
AcDbCircle
 10
121.0
 20
55.0
 30
0.0
 40
5.0
100
AcDbArc
 50
0.0
 51
90.0
  0
LINE
  5
81
330
1F
100
AcDbEntity
  8
0
  6
Continuous
 62
     7
370
    25
100
AcDbLine
 10
121.0
 20
60.0
 30
0.0
 11
5.0
 21
60.0
 31
0.0
  0
ARC
  5
82
330
1F
100
AcDbEntity
  8
0
  6
Continuous
 62
     7
370
    25
100
AcDbCircle
 10
5.0
 20
55.0
 30
0.0
 40
5.0
100
AcDbArc
 50
90.0
 51
180.0
  0
LINE
  5
83
330
1F
100
AcDbEntity
  8
0
  6
Continuous
 62
     7
370
    25
100
AcDbLine
 10
0.0
 20
55.0
 30
0.0
 11
0.0
 21
5.0
 31
0.0
  0
ARC
  5
84
330
1F
100
AcDbEntity
  8
0
  6
Continuous
 62
     7
370
    25
100
AcDbCircle
 10
5.0
 20
5.0
 30
0.0
 40
5.0
100
AcDbArc
 50
180.0
 51
270.0
  0
SPLINE
  5
85
330
1F
100
AcDbEntity
  8
0
  6
Continuous
 62
     7
370
    25
100
AcDbSpline
210
0.0
220
0.0
230
1.0
 70
     8
 71
     3
 72
    31
 73
    27
 74
     0
 42
0.00000001
 43
0.00000001
 40
0.0
 40
0.0
 40
0.0
 40
0.0
 40
0.0282123730059094
 40
0.055764152563774
 40
0.0835585921375173
 40
0.1111851297770114
 40
0.1391773236031638
 40
0.167808230562246
 40
0.1975484749280103
 40
0.2280860497231972
 40
0.2598432643621454
 40
0.2924014512047984
 40
0.3266063082727059
 40
0.3624611389348062
 40
0.3994485609135364
 40
0.4385392501858659
 40
0.4796116669778218
 40
0.5227071495917777
 40
0.5686157550456709
 40
0.6183700989648644
 40
0.6720387377362567
 40
0.7294720133761883
 40
0.7907713617513277
 40
0.8565568233523743
 40
0.926279117008879
 40
1.0
 40
1.0
 40
1.0
 40
1.0
 10
73.35773532595786
 20
3.506097496136241
 30
0.0
 10
73.05341777271052
 20
3.51276759072118
 30
0.0
 10
72.45190826964377
 20
3.525951599452792
 30
0.0
 10
71.55933739748134
 20
3.663105805353321
 30
0.0
 10
70.69079349193828
 20
3.881950188238454
 30
0.0
 10
69.84418799288999
 20
4.187703939155096
 30
0.0
 10
69.01504530174198
 20
4.563074317880709
 30
0.0
 10
68.22427114577145
 20
5.057600707325179
 30
0.0
 10
67.44258997417272
 20
5.613127196809887
 30
0.0
 10
66.68796672638042
 20
6.25927494659939
 30
0.0
 10
65.96807181741231
 20
6.987253137923345
 30
0.0
 10
65.29441580168121
 20
7.80977771099101
 30
0.0
 10
64.65214618499742
 20
8.711382141961455
 30
0.0
 10
64.05502499876398
 20
9.700166452446304
 30
0.0
 10
63.50381998319442
 20
10.77401516103027
 30
0.0
 10
62.97787162814065
 20
11.92308589158572
 30
0.0
 10
62.51758892615982
 20
13.17018469118217
 30
0.0
 10
62.06603536602334
 20
14.49804060956938
 30
0.0
 10
61.67681123999341
 20
15.94326474231241
 30
0.0
 10
61.33576004458526
 20
17.51709898111717
 30
0.0
 10
61.06137722695878
 20
19.22991922321568
 30
0.0
 10
60.83572361541317
 20
21.07472170426297
 30
0.0
 10
60.64027382295858
 20
23.05442939061052
 30
0.0
 10
60.51427057770405
 20
25.17265533114082
 30
0.0
 10
60.44854865930517
 20
27.42728243284663
 30
0.0
 10
60.43434567508242
 20
28.97347155688524
 30
0.0
 10
60.42704622339375
 20
29.76811672690548
 30
0.0
  0
SPLINE
  5
86
330
1F
100
AcDbEntity
  8
0
  6
Continuous
 62
     7
370
    25
100
AcDbSpline
210
0.0
220
0.0
230
1.0
 70
     8
 71
     3
 72
    31
 73
    27
 74
     0
 42
0.00000001
 43
0.00000001
 40
0.0
 40
0.0
 40
0.0
 40
0.0
 40
0.0742458915755411
 40
0.1441888372749672
 40
0.210199521571525
 40
0.2717001677583218
 40
0.3290605151420002
 40
0.3823557609924437
 40
0.4316796985506156
 40
0.4771507026073322
 40
0.5198006320387182
 40
0.5605317900763193
 40
0.5992911935739087
 40
0.636648923252797
 40
0.6720335095179164
 40
0.7061949335663146
 40
0.7391095526753264
 40
0.7710474162057611
 40
0.8019823344168898
 40
0.8316170855975685
 40
0.8604764458592384
 40
0.8888442197316775
 40
0.9165412496593924
 40
0.9440006069019903
 40
0.9718234508112968
 40
1.0
 40
1.0
 40
1.0
 40
1.0
 10
60.42704622339375
 20
29.76811672690548
 30
0.0
 10
60.43442596646924
 20
30.56942966623305
 30
0.0
 10
60.44875775710251
 20
32.12561518119144
 30
0.0
 10
60.51313496805618
 20
34.39372410734898
 30
0.0
 10
60.64421661350728
 20
36.52118289241059
 30
0.0
 10
60.82214894173168
 20
38.50886299163306
 30
0.0
 10
61.05043460636016
 20
40.35330130256616
 30
0.0
 10
61.3284660235749
 20
42.05795270905342
 30
0.0
 10
61.65620583732542
 20
43.62294655842955
 30
0.0
 10
62.03705877790627
 20
45.0576650611121
 30
0.0
 10
62.47528197636447
 20
46.3780143499129
 30
0.0
 10
62.93849147723464
 20
47.61303575163538
 30
0.0
 10
63.4663467921785
 20
48.75937062315144
 30
0.0
 10
64.02233691960181
 20
49.82724114100412
 30
0.0
 10
64.61477449453508
 20
50.81816636091111
 30
0.0
 10
65.25215805211104
 20
51.72407577725871
 30
0.0
 10
65.95283141804647
 20
52.53204632886394
 30
0.0
 10
66.6660222171191
 20
53.28230121395656
 30
0.0
 10
67.43218335285474
 20
53.92459861461672
 30
0.0
 10
68.20300947328955
 20
54.50671837979047
 30
0.0
 10
69.00852905589419
 20
54.99065918789947
 30
0.0
 10
69.84105957826516
 20
55.37659784157514
 30
0.0
 10
70.68600076888062
 20
55.69467976264148
 30
0.0
 10
71.55566262359325
 20
55.91516842333794
 30
0.0
 10
72.4486922166994
 20
56.04958357001311
 30
0.0
 10
73.0534476971312
 20
56.06329902016533
 30
0.0
 10
73.35773532595786
 20
56.07020006023881
 30
0.0
  0
SPLINE
  5
87
330
1F
100
AcDbEntity
  8
0
  6
Continuous
 62
     7
370
    25
100
AcDbSpline
210
0.0
220
0.0
230
1.0
 70
     8
 71
     3
 72
    31
 73
    27
 74
     0
 42
0.00000001
 43
0.00000001
 40
0.0
 40
0.0
 40
0.0
 40
0.0
 40
0.0283339842297079
 40
0.0566178049779419
 40
0.0845276139016222
 40
0.1123660985848949
 40
0.1408616737106075
 40
0.1698317134995236
 40
0.1998055840887891
 40
0.2310096990849785
 40
0.2632097411675837
 40
0.2968533577486238
 40
0.3315129477020917
 40
0.3677156106548188
 40
0.4059778727451159
 40
0.4459061677226672
 40
0.4879018356603788
 40
0.5320761470877943
 40
0.5787362093880789
 40
0.628596761431659
 40
0.6817661780822055
 40
0.7382911266970797
 40
0.798268076597869
 40
0.8621048720624334
 40
0.9292258766964604
 40
1.0
 40
1.0
 40
1.0
 40
1.0
 10
73.35773532595785
 20
56.0702000602388
 30
0.0
 10
73.66535105541718
 20
56.0631821139681
 30
0.0
 10
74.28003790063727
 20
56.04915864624542
 30
0.0
 10
75.18955153832927
 20
55.9148976191827
 30
0.0
 10
76.07656910822902
 20
55.69656577193827
 30
0.0
 10
76.93420677037442
 20
55.37636146836302
 30
0.0
 10
77.7773580998218
 20
54.99147853832389
 30
0.0
 10
78.5928416460668
 20
54.5031114606322
 30
0.0
 10
79.38676551698903
 20
53.92975627983176
 30
0.0
 10
80.15457866676147
 20
53.26712089893749
 30
0.0
 10
80.90324445816513
 20
52.52488423162207
 30
0.0
 10
81.59982446641526
 20
51.6834738522072
 30
0.0
 10
82.24916121086987
 20
50.75306602440108
 30
0.0
 10
82.87801960172227
 20
49.74872615705495
 30
0.0
 10
83.45129920444403
 20
48.64664293351224
 30
0.0
 10
83.99524368953966
 20
47.46080903796128
 30
0.0
 10
84.49360153111516
 20
46.18581892221213
 30
0.0
 10
84.95712074112261
 20
44.82048608241023
 30
0.0
 10
85.36827901670365
 20
43.34941624597897
 30
0.0
 10
85.72603547891454
 20
41.76449224601939
 30
0.0
 10
86.03706300800691
 20
40.06081504500305
 30
0.0
 10
86.28531611974519
 20
38.2359165504926
 30
0.0
 10
86.4711040563572
 20
36.28759190254016
 30
0.0
 10
86.61240316185398
 20
34.22032852162736
 30
0.0
 10
86.69004775027857
 20
32.03233426934747
 30
0.0
 10
86.70263642067552
 20
30.53606893156292
 30
0.0
 10
86.70909750544503
 20
29.76811672690548
 30
0.0
  0
SPLINE
  5
88
330
1F
100
AcDbEntity
  8
0
  6
Continuous
 62
     7
370
    25
100
AcDbSpline
210
0.0
220
0.0
230
1.0
 70
     8
 71
     3
 72
    31
 73
    27
 74
     0
 42
0.00000001
 43
0.00000001
 40
0.0
 40
0.0
 40
0.0
 40
0.0
 40
0.0705520278887868
 40
0.1374466830742087
 40
0.2010334933411441
 40
0.2607766852098659
 40
0.317065091110861
 40
0.3699413228212131
 40
0.4197948870087694
 40
0.4662150939024086
 40
0.5101513356250321
 40
0.5517988619064093
 40
0.591775640839318
 40
0.6300843638618461
 40
0.6665931696052978
 40
0.7014735142620077
 40
0.735356025834223
 40
0.767813730654083
 40
0.7990557360465264
 40
0.8294961560523427
 40
0.8585013734544434
 40
0.8871626400569846
 40
0.9153245403206847
 40
0.9432682394450522
 40
0.9716316105038697
 40
1.0
 40
1.0
 40
1.0
 40
1.0
 10
86.70909750544503
 20
29.76811672690548
 30
0.0
 10
86.7029876070394
 20
29.00348052488276
 30
0.0
 10
86.69108454351442
 20
27.51384638010452
 30
0.0
 10
86.60862417646028
 20
25.33638965473236
 30
0.0
 10
86.48430410164492
 20
23.27826953129761
 30
0.0
 10
86.29525712193472
 20
21.3402950496705
 30
0.0
 10
86.04493301926897
 20
19.526420114144
 30
0.0
 10
85.74424030919995
 20
17.82914239001895
 30
0.0
 10
85.40193802760179
 20
16.24862489242611
 30
0.0
 10
84.98732172067994
 20
14.78560968876781
 30
0.0
 10
84.52132043590166
 20
13.43268250965158
 30
0.0
 10
84.03537503442631
 20
12.1609458994588
 30
0.0
 10
83.49150441964062
 20
10.97952821070453
 30
0.0
 10
82.91459808056207
 20
9.876507963839012
 30
0.0
 10
82.29305822247899
 20
8.861944191286545
 30
0.0
 10
81.62987699100678
 20
7.932138963421325
 30
0.0
 10
80.9198449695771
 20
7.094494806583289
 30
0.0
 10
80.17867633922677
 20
6.338447194384452
 30
0.0
 10
79.40202841442746
 20
5.675123136231178
 30
0.0
 10
78.60782799546818
 20
5.094009064937894
 30
0.0
 10
77.78446180655972
 20
4.607621417152292
 30
0.0
 10
76.94447278901788
 20
4.205312814240639
 30
0.0
 10
76.07893445326123
 20
3.891613023519314
 30
0.0
 10
75.18878191869493
 20
3.674224475045488
 30
0.0
 10
74.2809656611625
 20
3.523967012799178
 30
0.0
 10
73.66549691895162
 20
3.512054352951388
 30
0.0
 10
73.35773532595785
 20
3.506097496136241
 30
0.0
  0
LINE
  5
89
330
1F
100
AcDbEntity
  8
0
  6
Continuous
 62
     7
370
    25
100
AcDbLine
 10
7.8629436593
 20
4.7881487782
 30
0.0
 11
7.8629436593
 21
54.7881487782
 31
0.0
  0
LINE
  5
8A
330
1F
100
AcDbEntity
  8
0
  6
Continuous
 62
     7
370
    25
100
AcDbLine
 10
7.8629436593
 20
54.7881487782
 30
0.0
 11
11.7090975054
 21
54.7881487782
 31
0.0
  0
LINE
  5
8B
330
1F
100
AcDbEntity
  8
0
  6
Continuous
 62
     7
370
    25
100
AcDbLine
 10
11.7090975054
 20
54.7881487782
 30
0.0
 11
11.7090975054
 21
9.9163539064
 31
0.0
  0
LINE
  5
8C
330
1F
100
AcDbEntity
  8
0
  6
Continuous
 62
     7
370
    25
100
AcDbLine
 10
11.7090975054
 20
9.9163539064
 30
0.0
 11
27.0937128901
 21
9.9163539064
 31
0.0
  0
LINE
  5
8D
330
1F
100
AcDbEntity
  8
0
  6
Continuous
 62
     7
370
    25
100
AcDbLine
 10
27.0937128901
 20
9.9163539064
 30
0.0
 11
27.0937128901
 21
4.7881487782
 31
0.0
  0
LINE
  5
8E
330
1F
100
AcDbEntity
  8
0
  6
Continuous
 62
     7
370
    25
100
AcDbLine
 10
27.0937128901
 20
4.7881487782
 30
0.0
 11
7.8629436593
 21
4.7881487782
 31
0.0
  0
SPLINE
  5
8F
330
1F
100
AcDbEntity
  8
0
  6
Continuous
 62
     7
370
    25
100
AcDbSpline
210
0.0
220
0.0
230
1.0
 70
     8
 71
     3
 72
    27
 73
    23
 74
     0
 42
0.00000001
 43
0.00000001
 40
0.0
 40
0.0
 40
0.0
 40
0.0
 40
0.0490554349108089
 40
0.0988037954731598
 40
0.1522879725438012
 40
0.2104851462474036
 40
0.241327784723858
 40
0.273510835636376
 40
0.3072516757647309
 40
0.3421995575664358
 40
0.3787098368929074
 40
0.4172700075290999
 40
0.4576269395106877
 40
0.5001383665556703
 40
0.5457915888164523
 40
0.596156367289496
 40
0.6510202598742165
 40
0.7111914066470818
 40
0.775987876851777
 40
0.845426085997174
 40
0.9203465768935424
 40
1.0
 40
1.0
 40
1.0
 40
1.0
 10
73.47792763365017
 20
50.94199493203369
 30
0.0
 10
73.06421567419015
 20
50.91316801755893
 30
0.0
 10
72.23094792513014
 20
50.85510699808034
 30
0.0
 10
71.00392208074548
 20
50.42957588232596
 30
0.0
 10
69.83809007383987
 20
49.71666626833584
 30
0.0
 10
68.92043492534167
 20
48.93447174816714
 30
0.0
 10
68.22306078777741
 20
48.18681859277994
 30
0.0
 10
67.72263338541578
 20
47.54193199830896
 30
0.0
 10
67.25269454550997
 20
46.832760523919
 30
0.0
 10
66.82399845790027
 20
46.05621236307909
 30
0.0
 10
66.42031738651822
 20
45.22120571840206
 30
0.0
 10
66.05414157797199
 20
44.31977141858356
 30
0.0
 10
65.70906106280096
 20
43.35609811282195
 30
0.0
 10
65.41143911672023
 20
42.31444311699431
 30
0.0
 10
65.13340922861497
 20
41.18033432417895
 30
0.0
 10
64.91222696248332
 20
39.92791082396452
 30
0.0
 10
64.70694724380924
 20
38.54931282351728
 30
0.0
 10
64.55514270628338
 20
37.04140259911175
 30
0.0
 10
64.42202023002493
 20
35.40879485253281
 30
0.0
 10
64.33401736211091
 20
33.64849398175595
 30
0.0
 10
64.28663202661126
 20
31.76157443655659
 30
0.0
 10
64.27776785985057
 20
30.4592493887105
 30
0.0
 10
64.2732000695476
 20
29.78814877818753
 30
0.0
  0
SPLINE
  5
90
330
1F
100
AcDbEntity
  8
0
  6
Continuous
 62
     7
370
    25
100
AcDbSpline
210
0.0
220
0.0
230
1.0
 70
     8
 71
     3
 72
    27
 73
    23
 74
     0
 42
0.00000001
 43
0.00000001
 40
0.0
 40
0.0
 40
0.0
 40
0.0
 40
0.079262669078683
 40
0.1537921975927228
 40
0.2236309920939439
 40
0.2880064336636459
 40
0.3477876773518769
 40
0.403047538522993
 40
0.4534158071528925
 40
0.4989809473510963
 40
0.5414953203347496
 40
0.5818550489537323
 40
0.6204178917161206
 40
0.656930701116298
 40
0.6920759276350754
 40
0.7258191059217246
 40
0.758004387041526
 40
0.7894092429541132
 40
0.8481690306913975
 40
0.9014554080957755
 40
0.9513348961961459
 40
1.0
 40
1.0
 40
1.0
 40
1.0
 10
64.2732000695476
 20
29.78814877818753
 30
0.0
 10
64.27783823118108
 20
29.12039367949375
 30
0.0
 10
64.28683758836516
 20
27.82475822745117
 30
0.0
 10
64.33341307437165
 20
25.94108928704427
 30
0.0
 10
64.425294375183
 20
24.18472752016629
 30
0.0
 10
64.54141798206066
 20
22.55433219053867
 30
0.0
 10
64.69977553093209
 20
21.05072486500174
 30
0.0
 10
64.89975555366222
 20
19.67130504115426
 30
0.0
 10
65.12729637443368
 20
18.41769237114445
 30
0.0
 10
65.3883719076839
 20
17.2803763121039
 30
0.0
 10
65.6898912056051
 20
16.24045714982649
 30
0.0
 10
66.03367190585243
 20
15.27637636310092
 30
0.0
 10
66.40116731583802
 20
14.37560539312566
 30
0.0
 10
66.8017853732059
 20
13.53700793805193
 30
0.0
 10
67.24445274610024
 20
12.76644444208345
 30
0.0
 10
67.7119818024569
 20
12.05407343296857
 30
0.0
 10
68.21598055805848
 20
11.40567890449099
 30
0.0
 10
68.92093263527615
 20
10.6526848934426
 30
0.0
 10
69.84025828370015
 20
9.858653542667668
 30
0.0
 10
71.01918207861668
 20
9.161604121422618
 30
0.0
 10
72.23537598833812
 20
8.718992480904319
 30
0.0
 10
73.0671604996655
 20
8.66229969777424
 30
0.0
 10
73.47792763365017
 20
8.634302624341371
 30
0.0
  0
SPLINE
  5
91
330
1F
100
AcDbEntity
  8
0
  6
Continuous
 62
     7
370
    25
100
AcDbSpline
210
0.0
220
0.0
230
1.0
 70
     8
 71
     3
 72
    19
 73
    15
 74
     0
 42
0.00000001
 43
0.00000001
 40
0.0
 40
0.0
 40
0.0
 40
0.0
 40
0.0983292114908509
 40
0.1983914542370228
 40
0.3031139533532796
 40
0.4187497432265608
 40
0.4806268305972477
 40
0.5440773153528334
 40
0.6113332692721571
 40
0.6814463738081176
 40
0.7546939899463058
 40
0.8324940571178067
 40
0.9139492004948655
 40
1.0
 40
1.0
 40
1.0
 40
1.0
 10
73.47792763365017
 20
8.634302624341371
 30
0.0
 10
73.89224921912123
 20
8.65766008301185
 30
0.0
 10
74.7281947191118
 20
8.704786670550375
 30
0.0
 10
75.93702464801032
 20
9.150812138759115
 30
0.0
 10
77.10586498160053
 20
9.826862400144314
 30
0.0
 10
78.00825468587092
 20
10.60602539284185
 30
0.0
 10
78.69959198434798
 20
11.3457697693131
 30
0.0
 10
79.19654470262215
 20
11.98556847695687
 30
0.0
 10
79.65164741892768
 20
12.69660167372785
 30
0.0
 10
80.08169093272531
 20
13.46987484136831
 30
0.0
 10
80.48928779486424
 20
14.30546900798324
 30
0.0
 10
80.84065255326033
 20
15.21722209960751
 30
0.0
 10
81.17626506396758
 20
16.19161728302701
 30
0.0
 10
81.36416996190006
 20
16.86969562417291
 30
0.0
 10
81.4607000695476
 20
17.21803659870034
 30
0.0
  0
SPLINE
  5
92
330
1F
100
AcDbEntity
  8
0
  6
Continuous
 62
     7
370
    25
100
AcDbSpline
210
0.0
220
0.0
230
1.0
 70
     8
 71
     3
 72
    15
 73
    11
 74
     0
 42
0.00000001
 43
0.00000001
 40
0.0
 40
0.0
 40
0.0
 40
0.0
 40
0.1089869875439269
 40
0.2217401847416289
 40
0.3393690416482035
 40
0.46122723572253
 40
0.5881397141070513
 40
0.7203120953921476
 40
0.8578380172885807
 40
1.0
 40
1.0
 40
1.0
 40
1.0
 10
81.4607000695476
 20
17.21803659870034
 30
0.0
 10
81.57517813068472
 20
17.66442662315479
 30
0.0
 10
81.80809021493864
 20
18.57263235229703
 30
0.0
 10
82.08279842122883
 20
19.98148605445028
 30
0.0
 10
82.32213264091662
 20
21.45132014492824
 30
0.0
 10
82.52544780162506
 20
22.98728717195023
 30
0.0
 10
82.6713522489096
 20
24.59147118212625
 30
0.0
 10
82.78042121330121
 20
26.26468372474709
 30
0.0
 10
82.85458264920466
 20
28.00463000421246
 30
0.0
 10
82.86012602722089
 20
29.18710899429056
 30
0.0
 10
82.86294365929119
 20
29.78814877818753
 30
0.0
  0
SPLINE
  5
93
330
1F
100
AcDbEntity
  8
0
  6
Continuous
 62
     7
370
    25
100
AcDbSpline
210
0.0
220
0.0
230
1.0
 70
     8
 71
     3
 72
    27
 73
    23
 74
     0
 42
0.00000001
 43
0.00000001
 40
0.0
 40
0.0
 40
0.0
 40
0.0
 40
0.071375956541358
 40
0.1396169211048041
 40
0.2043693398241833
 40
0.2660439577725415
 40
0.3247660673391107
 40
0.3801141823590541
 40
0.4326811168941911
 40
0.4824030444856257
 40
0.5294607833491827
 40
0.5733462452844117
 40
0.6151680374586138
 40
0.6545483502651407
 40
0.6916362156521602
 40
0.7263957992865329
 40
0.7594680408474137
 40
0.7908899415303942
 40
0.8491227364629864
 40
0.9022992578849038
 40
0.9517023857988688
 40
1.0
 40
1.0
 40
1.0
 40
1.0
 10
82.86294365929119
 20
29.78814877818753
 30
0.0
 10
82.85914917168229
 20
30.38915162029032
 30
0.0
 10
82.85172685886435
 20
31.56475991271308
 30
0.0
 10
82.79242318126508
 20
33.28490525442189
 30
0.0
 10
82.68814852371344
 20
34.92073845874394
 30
0.0
 10
82.56750865854686
 20
36.47546722890172
 30
0.0
 10
82.3799139770299
 20
37.94358342499112
 30
0.0
 10
82.17914210126
 20
39.33271208122624
 30
0.0
 10
81.91164105474375
 20
40.63324443590169
 30
0.0
 10
81.62831056874379
 20
41.85885826240028
 30
0.0
 10
81.29363324334604
 20
42.99544037878883
 30
0.0
 10
80.94681510544653
 20
44.05862588401624
 30
0.0
 10
80.55562721745605
 20
45.03722637757117
 30
0.0
 10
80.13755563881789
 20
45.94202556416911
 30
0.0
 10
79.68465862656556
 20
46.76238729341524
 30
0.0
 10
79.21718381729735
 20
47.51303495997536
 30
0.0
 10
78.7048131552538
 20
48.17526374425246
 30
0.0
 10
77.99866565206851
 20
48.93112709072634
 30
0.0
 10
77.0791166772209
 20
49.71353716371072
 30
0.0
 10
75.92248048703335
 20
50.42954882585153
 30
0.0
 10
74.7082283064316
 20
50.85382318194735
 30
0.0
 10
73.88492253924133
 20
50.91282689701907
 30
0.0
 10
73.47792763365015
 20
50.94199493203368
 30
0.0
  0
ENDSEC
  0
SECTION
  2
OBJECTS
  0
DICTIONARY
  5
C
330
0
100
AcDbDictionary
281
     1
  3
ACAD_GROUP
350
D
  3
ACAD_LAYOUT
350
1A
  3
ACAD_MLINESTYLE
350
17
  3
ACAD_PLOTSETTINGS
350
19
  3
ACAD_PLOTSTYLENAME
350
E
  3
ACAD_SCALELIST
350
47
  3
DWGPROPS
350
94
  0
DICTIONARY
  5
D
102
{ACAD_REACTORS
330
C
102
}
330
C
100
AcDbDictionary
281
     1
  0
DICTIONARY
  5
1A
102
{ACAD_REACTORS
330
C
102
}
330
C
100
AcDbDictionary
281
     1
  3
Layout1
350
1E
  3
Layout2
350
26
  3
Model
350
22
  0
DICTIONARY
  5
17
102
{ACAD_REACTORS
330
C
102
}
330
C
100
AcDbDictionary
281
     1
  3
Standard
350
18
  0
DICTIONARY
  5
19
102
{ACAD_REACTORS
330
C
102
}
330
C
100
AcDbDictionary
281
     1
  0
ACDBDICTIONARYWDFLT
  5
E
102
{ACAD_REACTORS
330
C
102
}
330
C
100
AcDbDictionary
281
     1
  3
Normal
350
F
100
AcDbDictionaryWithDefault
340
F
  0
DICTIONARY
  5
47
102
{ACAD_REACTORS
330
C
102
}
330
C
100
AcDbDictionary
281
     1
  3
A0
350
48
  3
A1
350
49
  3
A2
350
4A
  3
A3
350
4B
  3
A4
350
4C
  3
A5
350
4D
  3
A6
350
4E
  3
A7
350
4F
  3
A8
350
50
  3
A9
350
51
  3
B0
350
52
  3
B1
350
53
  3
B2
350
54
  3
B3
350
55
  3
B4
350
56
  3
B5
350
57
  3
B6
350
58
  0
XRECORD
  5
94
102
{ACAD_REACTORS
330
C
102
}
330
C
100
AcDbXrecord
280
     1
  1
DWGPROPS COOKIE
  2

  3

  4

  6

  7

  8
tj360
  9

300
=
301
=
302
=
303
=
304
=
305
=
306
=
307
=
308
=
309
=
 40
0.0
 41
2460753.442921331
 42
2460753.442994433
  1

 90
        0
  0
LAYOUT
  5
1E
102
{ACAD_REACTORS
330
1A
102
}
330
1A
100
AcDbPlotSettings
  1

  2
none_device
  4

  6

 40
0.0
 41
0.0
 42
0.0
 43
0.0
 44
0.0
 45
0.0
 46
0.0
 47
0.0
 48
0.0
 49
0.0
140
0.0
141
0.0
142
1.0
143
1.0
 70
   688
 72
     1
 73
     0
 74
     5
  7

 75
    16
147
1.0
148
0.0
149
0.0
100
AcDbLayout
  1
Layout1
 70
     1
 71
     1
 10
0.0
 20
0.0
 11
420.0
 21
297.0
 12
0.0
 22
0.0
 32
0.0
 14
1.0000000000E+20
 24
1.0000000000E+20
 34
1.0000000000E+20
 15
-1.0000000000E+20
 25
-1.0000000000E+20
 35
-1.0000000000E+20
146
0.0
 13
0.0
 23
0.0
 33
0.0
 16
1.0
 26
0.0
 36
0.0
 17
0.0
 27
1.0
 37
0.0
 76
     0
330
1B
  0
LAYOUT
  5
26
102
{ACAD_REACTORS
330
1A
102
}
330
1A
100
AcDbPlotSettings
  1

  2
none_device
  4

  6

 40
0.0
 41
0.0
 42
0.0
 43
0.0
 44
0.0
 45
0.0
 46
0.0
 47
0.0
 48
0.0
 49
0.0
140
0.0
141
0.0
142
1.0
143
1.0
 70
   688
 72
     1
 73
     0
 74
     5
  7

 75
    16
147
1.0
148
0.0
149
0.0
100
AcDbLayout
  1
Layout2
 70
     1
 71
     2
 10
0.0
 20
0.0
 11
0.0
 21
0.0
 12
0.0
 22
0.0
 32
0.0
 14
0.0
 24
0.0
 34
0.0
 15
0.0
 25
0.0
 35
0.0
146
0.0
 13
0.0
 23
0.0
 33
0.0
 16
1.0
 26
0.0
 36
0.0
 17
0.0
 27
1.0
 37
0.0
 76
     0
330
23
  0
LAYOUT
  5
22
102
{ACAD_REACTORS
330
1A
102
}
330
1A
100
AcDbPlotSettings
  1

  2
none_device
  4
ANSI_A_(11.00_x_8.50_Inches)
  6

 40
6.35
 41
19.05
 42
6.35000508
 43
19.05000254
 44
279.4
 45
215.9
 46
-4.95300254
 47
23.0414273014
 48
0.0
 49
0.0
140
0.0
141
0.0
142
0.0864285714
143
1.0
 70
  1696
 72
     0
 73
     0
 74
     0
  7

 75
     0
147
0.0179189148
148
-1300.4909072572
149
0.0
100
AcDbLayout
  1
Model
 70
     1
 71
     0
 10
0.0
 20
0.0
 11
420.0
 21
297.0
 12
0.0
 22
0.0
 32
0.0
 14
0.0
 24
0.0
 34
0.0
 15
126.0
 25
60.0
 35
0.0
146
0.0
 13
0.0
 23
0.0
 33
0.0
 16
1.0
 26
0.0
 36
0.0
 17
0.0
 27
1.0
 37
0.0
 76
     0
330
1F
331
29
  0
MLINESTYLE
  5
18
102
{ACAD_REACTORS
330
17
102
}
330
17
100
AcDbMlineStyle
  2
Standard
 70
     0
  3

 62
   256
 51
90.0
 52
90.0
 71
     2
 49
0.5
 62
   256
  6
BYLAYER
 49
-0.5
 62
   256
  6
BYLAYER
  0
ACDBPLACEHOLDER
  5
F
102
{ACAD_REACTORS
330
E
102
}
330
E
  0
SCALE
  5
48
102
{ACAD_REACTORS
330
47
102
}
330
47
100
AcDbScale
 70
     0
300
1:1
140
1.0
141
1.0
290
     1
  0
SCALE
  5
49
102
{ACAD_REACTORS
330
47
102
}
330
47
100
AcDbScale
 70
     0
300
1:2
140
1.0
141
2.0
290
     0
  0
SCALE
  5
4A
102
{ACAD_REACTORS
330
47
102
}
330
47
100
AcDbScale
 70
     0
300
1:4
140
1.0
141
4.0
290
     0
  0
SCALE
  5
4B
102
{ACAD_REACTORS
330
47
102
}
330
47
100
AcDbScale
 70
     0
300
1:5
140
1.0
141
5.0
290
     0
  0
SCALE
  5
4C
102
{ACAD_REACTORS
330
47
102
}
330
47
100
AcDbScale
 70
     0
300
1:8
140
1.0
141
8.0
290
     0
  0
SCALE
  5
4D
102
{ACAD_REACTORS
330
47
102
}
330
47
100
AcDbScale
 70
     0
300
1:10
140
1.0
141
10.0
290
     0
  0
SCALE
  5
4E
102
{ACAD_REACTORS
330
47
102
}
330
47
100
AcDbScale
 70
     0
300
1:16
140
1.0
141
16.0
290
     0
  0
SCALE
  5
4F
102
{ACAD_REACTORS
330
47
102
}
330
47
100
AcDbScale
 70
     0
300
1:20
140
1.0
141
20.0
290
     0
  0
SCALE
  5
50
102
{ACAD_REACTORS
330
47
102
}
330
47
100
AcDbScale
 70
     0
300
1:30
140
1.0
141
30.0
290
     0
  0
SCALE
  5
51
102
{ACAD_REACTORS
330
47
102
}
330
47
100
AcDbScale
 70
     0
300
1:40
140
1.0
141
40.0
290
     0
  0
SCALE
  5
52
102
{ACAD_REACTORS
330
47
102
}
330
47
100
AcDbScale
 70
     0
300
1:50
140
1.0
141
50.0
290
     0
  0
SCALE
  5
53
102
{ACAD_REACTORS
330
47
102
}
330
47
100
AcDbScale
 70
     0
300
1:100
140
1.0
141
100.0
290
     0
  0
SCALE
  5
54
102
{ACAD_REACTORS
330
47
102
}
330
47
100
AcDbScale
 70
     0
300
2:1
140
2.0
141
1.0
290
     0
  0
SCALE
  5
55
102
{ACAD_REACTORS
330
47
102
}
330
47
100
AcDbScale
 70
     0
300
4:1
140
4.0
141
1.0
290
     0
  0
SCALE
  5
56
102
{ACAD_REACTORS
330
47
102
}
330
47
100
AcDbScale
 70
     0
300
8:1
140
8.0
141
1.0
290
     0
  0
SCALE
  5
57
102
{ACAD_REACTORS
330
47
102
}
330
47
100
AcDbScale
 70
     0
300
10:1
140
10.0
141
1.0
290
     0
  0
SCALE
  5
58
102
{ACAD_REACTORS
330
47
102
}
330
47
100
AcDbScale
 70
     0
300
100:1
140
100.0
141
1.0
290
     0
  0
ENDSEC
  0
EOF
